<?xml version="1.0" encoding="iso-8859-1"?>
<!-- Generator: Adobe Illustrator 19.0.0, SVG Export Plug-In . SVG Version: 6.00 Build 0)  -->
<svg version="1.1" id="Capa_1" xmlns="http://www.w3.org/2000/svg" xmlns:xlink="http://www.w3.org/1999/xlink" x="0px" y="0px"
	 viewBox="0 0 490.667 490.667" style="enable-background:new 0 0 490.667 490.667;" xml:space="preserve">
<g>
	<path style="fill:#1976D2;" d="M330.667,298.62H480c5.891,0,10.667,4.776,10.667,10.667v170.667
		c0,5.891-4.776,10.667-10.667,10.667H330.667c-5.891,0-10.667-4.776-10.667-10.667V309.287
		C320,303.396,324.776,298.62,330.667,298.62z"/>
	<path style="fill:#1976D2;" d="M10.667,277.287H160c5.891,0,10.667,4.776,10.667,10.667v192c0,5.891-4.776,10.667-10.667,10.667
		H10.667C4.776,490.62,0,485.845,0,479.954v-192C0,282.063,4.776,277.287,10.667,277.287z"/>
</g>
<path style="fill:#2196F3;" d="M160,191.954h170.667c5.891,0,10.667,4.776,10.667,10.667v277.333
	c0,5.891-4.776,10.667-10.667,10.667H160c-5.891,0-10.667-4.776-10.667-10.667V202.62C149.333,196.729,154.109,191.954,160,191.954z
	"/>
<g>
	<path style="fill:#FAFAFA;" d="M448,373.287c0-17.673-14.327-32-32-32h-21.333c-17.673,0-32,14.327-32,32
		c0,5.891,4.776,10.667,10.667,10.667S384,379.178,384,373.287c0-5.891,4.776-10.667,10.667-10.667H416
		c5.891,0,10.667,4.776,10.667,10.667c0,5.891-4.776,10.667-10.667,10.667h-21.333c-5.891,0-10.667,4.776-10.667,10.667
		s4.776,10.667,10.667,10.667H416c5.891,0,10.667,4.776,10.667,10.667c0,5.891-4.776,10.667-10.667,10.667h-21.333
		c-5.891,0-10.667-4.776-10.667-10.667c0-5.891-4.776-10.667-10.667-10.667s-10.667,4.776-10.667,10.667c0,17.673,14.327,32,32,32
		H416c17.673-0.012,31.99-14.349,31.978-32.022c-0.005-7.864-2.906-15.45-8.149-21.311C445.097,388.764,448.008,381.164,448,373.287
		z"/>
	<path style="fill:#FAFAFA;" d="M128,362.62c0-23.564-19.103-42.667-42.667-42.667s-42.667,19.102-42.667,42.667
		c0,5.891,4.776,10.667,10.667,10.667S64,368.511,64,362.62c0-11.782,9.551-21.333,21.333-21.333s21.333,9.551,21.333,21.333
		c0.017,4.004-1.574,7.847-4.416,10.667l-56.469,56.448c-4.171,4.16-4.179,10.914-0.019,15.085c2.006,2.011,4.731,3.139,7.571,3.134
		h64c5.891,0,10.667-4.776,10.667-10.667c0-5.891-4.776-10.667-10.667-10.667H79.083l38.251-38.251
		C124.177,381.55,128.016,372.282,128,362.62z"/>
	<path style="fill:#FAFAFA;" d="M266.667,362.62H256V245.287c0.005-4.703-3.072-8.855-7.573-10.219
		c-4.495-1.413-9.381,0.329-11.968,4.267l-21.333,32c-3.27,4.901-1.947,11.525,2.955,14.795c4.901,3.27,11.525,1.947,14.795-2.955
		l0,0l1.792-2.688v82.112H224c-5.891,0-10.667,4.776-10.667,10.667c0,5.891,4.776,10.667,10.667,10.667h42.667
		c5.891,0,10.667-4.776,10.667-10.667c0-5.891-4.776-10.667-10.667-10.667V362.62z"/>
</g>
<path style="fill:#FFC107;" d="M337.28,66.066c-1.425-4.403-5.527-7.384-10.155-7.381h-54.72L255.488,6.652
	c-2.48-5.602-9.032-8.134-14.634-5.654c-2.522,1.116-4.538,3.132-5.654,5.654l-16.939,52.053h-54.72
	c-5.891,0.07-10.609,4.902-10.539,10.793c0.039,3.313,1.616,6.42,4.267,8.407l44.267,32.277l-16.896,52.032
	c-1.827,5.601,1.233,11.622,6.833,13.448c3.257,1.062,6.826,0.496,9.593-1.523l44.267-32.149L289.6,174.14
	c4.759,3.472,11.432,2.427,14.904-2.332c2.019-2.768,2.585-6.336,1.523-9.593l-16.896-52.032l44.267-32.192
	C337.139,75.277,338.706,70.462,337.28,66.066z"/>
<g>
</g>
<g>
</g>
<g>
</g>
<g>
</g>
<g>
</g>
<g>
</g>
<g>
</g>
<g>
</g>
<g>
</g>
<g>
</g>
<g>
</g>
<g>
</g>
<g>
</g>
<g>
</g>
<g>
</g>
</svg>
