<?xml version="1.0" encoding="iso-8859-1"?>
<!-- Generator: Adobe Illustrator 19.0.0, SVG Export Plug-In . SVG Version: 6.00 Build 0)  -->
<svg version="1.1" id="Layer_1" xmlns="http://www.w3.org/2000/svg" xmlns:xlink="http://www.w3.org/1999/xlink" x="0px" y="0px"
	 viewBox="0 0 512 512" style="enable-background:new 0 0 512 512;" xml:space="preserve">
<path style="fill:#7DD2F0;" d="M454.788,112.672c-37.624-53.598-93.869-89.335-158.373-100.628
	C231.911,0.749,166.87,15.25,113.273,52.876C59.675,90.5,23.938,146.745,12.644,211.248l65.345,11.441
	C94.995,125.564,187.847,60.382,284.973,77.388S447.28,187.246,430.274,284.372c-17.006,97.125-109.858,162.307-206.983,145.301
	c-14.997-2.626-29.417-7.071-43.072-13.257l26.767-34.154L63.095,367.5l48.724,136.192l26.611-33.955
	c22.903,12.258,47.549,20.75,73.419,25.28c64.504,11.294,129.545-3.208,183.142-40.832s89.335-93.869,100.628-158.373
	C506.915,231.31,492.413,166.269,454.788,112.672z"/>
<g style="opacity:0.1;">
	<path d="M146.443,63.932C200.039,26.307,265.081,11.806,329.585,23.1c6.425,1.126,12.764,2.503,19.014,4.106
		c-16.589-6.886-34.06-11.99-52.184-15.163C231.911,0.749,166.87,15.25,113.273,52.876C59.675,90.5,23.938,146.745,12.644,211.248
		l34.123,5.975C59.014,154.852,94.259,100.565,146.443,63.932z"/>
</g>
<polygon style="fill:#7DD2F0;" points="379.81,287.026 226.081,287.026 226.081,133.296 270.307,133.296 270.307,242.8 
	379.81,242.8 "/>
<path d="M363.437,481.341c-3.041,0-5.967-1.678-7.422-4.583c-2.05-4.095-0.391-9.076,3.704-11.126
	c10.537-5.275,20.802-11.404,30.508-18.218c51.785-36.352,86.312-90.695,97.225-153.016c10.913-62.322-3.098-125.163-39.451-176.947
	c-36.352-51.783-90.694-86.312-153.017-97.225c-35.709-6.254-71.278-4.44-105.711,5.389c-4.398,1.257-8.993-1.293-10.251-5.697
	c-1.257-4.404,1.294-8.993,5.697-10.251C221.583-0.856,259.644-2.797,297.844,3.89c66.685,11.677,124.832,48.622,163.73,104.032
	c38.897,55.41,53.889,122.652,42.213,189.336c-11.677,66.685-48.622,124.833-104.031,163.73
	c-10.374,7.282-21.348,13.835-32.614,19.474C365.95,481.058,364.684,481.341,363.437,481.341z"/>
<path d="M111.82,512c-0.44,0-0.885-0.035-1.327-0.107c-2.981-0.483-5.464-2.549-6.481-5.392L55.288,370.31
	c-0.96-2.681-0.477-5.667,1.28-7.909c1.757-2.241,4.537-3.424,7.374-3.133l143.89,14.762c3.004,0.308,5.603,2.226,6.785,5.005
	c1.181,2.78,0.758,5.983-1.105,8.36l-20.039,25.568c10.066,3.813,20.538,6.683,31.248,8.558
	c44.787,7.845,90.016-2.268,127.342-28.471c37.325-26.202,62.2-65.301,70.043-110.094c16.218-92.622-45.942-181.167-138.563-197.385
	c-92.615-16.219-181.17,45.942-197.386,138.562c-0.791,4.512-5.082,7.527-9.599,6.738L11.212,219.43
	c-2.166-0.379-4.093-1.604-5.357-3.404s-1.76-4.028-1.381-6.195C16.151,143.146,53.096,84.999,108.508,46.101
	c13.182-9.253,27.283-17.288,41.911-23.882c4.173-1.884,9.085-0.023,10.968,4.152c1.882,4.175,0.023,9.085-4.153,10.967
	c-13.68,6.166-26.869,13.681-39.197,22.336c-49.516,34.759-83.255,85.968-95.656,144.872l49.048,8.589
	C92.85,116.031,187.51,51.923,286.403,69.234c49.155,8.608,92.059,35.9,120.806,76.851c28.747,40.951,39.839,90.575,31.233,139.731
	c-8.606,49.156-35.9,92.059-76.851,120.807c-40.951,28.747-90.571,39.839-139.732,31.233c-15.619-2.735-30.78-7.401-45.063-13.87
	c-2.319-1.05-4.027-3.108-4.632-5.579c-0.606-2.472-0.043-5.086,1.527-7.089l17.495-22.322L75.334,377.109l39.229,109.655
	l17.34-22.124c2.486-3.17,6.888-4.096,10.44-2.196c22.111,11.836,45.977,20.052,70.936,24.423
	c38.338,6.712,77.894,3.933,114.398-8.037c4.354-1.428,9.037,0.944,10.464,5.296c1.426,4.352-0.944,9.037-5.296,10.463
	c-39.084,12.816-81.418,15.794-122.426,8.614c-24.382-4.269-47.795-11.974-69.698-22.927l-22.374,28.548
	C116.759,510.847,114.343,512,111.82,512z"/>
<path d="M379.809,295.332H226.08c-4.581,0-8.292-3.713-8.292-8.292V133.31c0-4.58,3.712-8.292,8.292-8.292h44.226
	c4.581,0,8.292,3.713,8.292,8.292v101.211h101.211c4.581,0,8.292,3.713,8.292,8.292v44.226
	C388.102,291.619,384.39,295.332,379.809,295.332z M234.372,278.747h137.145v-27.641H270.306c-4.581,0-8.292-3.713-8.292-8.292
	V141.602h-27.641V278.747z"/>
<g>
</g>
<g>
</g>
<g>
</g>
<g>
</g>
<g>
</g>
<g>
</g>
<g>
</g>
<g>
</g>
<g>
</g>
<g>
</g>
<g>
</g>
<g>
</g>
<g>
</g>
<g>
</g>
<g>
</g>
</svg>
