<?xml version="1.0" encoding="iso-8859-1"?>
<!-- Generator: Adobe Illustrator 19.0.0, SVG Export Plug-In . SVG Version: 6.00 Build 0)  -->
<svg version="1.1" id="Layer_1" xmlns="http://www.w3.org/2000/svg" xmlns:xlink="http://www.w3.org/1999/xlink" x="0px" y="0px"
	 viewBox="0 0 512 512" style="enable-background:new 0 0 512 512;" xml:space="preserve">
<path style="fill:#C7CFE2;" d="M212.868,428.222v32.482c0,23.821,19.31,43.131,43.131,43.131l0,0
	c23.821,0,43.131-19.31,43.131-43.131v-32.482H212.868z"/>
<path style="opacity:0.1;enable-background:new    ;" d="M245.531,460.704v-32.482h-32.662v32.482
	c0,23.821,19.31,43.131,43.131,43.131c5.781,0,11.292-1.145,16.331-3.21C256.61,494.187,245.531,478.743,245.531,460.704z"/>
<path style="fill:#FFD782;" d="M257.861,85.607c-74.306-1.006-136.51,60.325-136.51,134.637c0,29.618,9.571,56.997,25.777,79.229
	c26.009,43.305,38.363,63.481,42.092,89.916c1.599,11.334,11.283,19.77,22.729,19.77h88.102c11.446,0,21.129-8.437,22.729-19.77
	c3.73-26.435,16.084-46.61,42.092-89.916c16.207-22.232,25.777-49.611,25.777-79.229C390.649,146.5,331.367,86.602,257.861,85.607z"
	/>
<path style="opacity:0.1;enable-background:new    ;" d="M232.769,389.388c-3.73-26.435-16.083-46.61-42.092-89.916
	c-16.207-22.232-25.777-49.611-25.777-79.229c0-66.338,49.574-122.327,113.073-132.864c-6.556-1.077-13.273-1.68-20.112-1.774
	c-74.306-1.006-136.51,60.325-136.51,134.637c0,29.618,9.571,56.997,25.777,79.229c26.009,43.306,38.362,63.481,42.092,89.916
	c1.599,11.334,11.283,19.769,22.729,19.769h43.55C244.052,409.158,234.368,400.722,232.769,389.388z"/>
<path style="fill:#B4BBCC;" d="M316.812,428.222L256,409.158l-60.812,19.064c-10.529,0-19.064,8.536-19.064,19.064
	c0,10.529,8.536,19.065,19.064,19.065h121.623c10.529,0,19.064-8.536,19.064-19.065C335.876,436.758,327.34,428.222,316.812,428.222
	z"/>
<path style="opacity:0.1;enable-background:new    ;" d="M219.673,447.287c0-10.529,8.536-19.064,19.065-19.064l39.037-12.237
	L256,409.16l-60.812,19.064c-10.529,0-19.065,8.536-19.065,19.064c0,10.529,8.536,19.065,19.065,19.065h43.55
	C228.209,466.351,219.673,457.817,219.673,447.287z"/>
<path style="fill:#C7CFE2;" d="M316.812,390.093H195.188c-10.529,0-19.064,8.536-19.064,19.064l0,0
	c0,10.529,8.536,19.064,19.064,19.064h121.623c10.529,0,19.064-8.536,19.064-19.064l0,0
	C335.876,398.629,327.34,390.093,316.812,390.093z"/>
<path style="opacity:0.1;enable-background:new    ;" d="M219.673,409.158c0-10.529,8.536-19.064,19.065-19.064h-43.55
	c-10.529,0-19.065,8.536-19.065,19.064c0,10.529,8.536,19.064,19.065,19.064h43.55C228.209,428.222,219.673,419.688,219.673,409.158
	z"/>
<path d="M247.834,8.166v44.383c0,4.51,3.656,8.166,8.166,8.166c4.51,0,8.166-3.656,8.166-8.166V8.166C264.166,3.656,260.51,0,256,0
	C251.49,0,247.834,3.656,247.834,8.166z"/>
<path d="M127.383,43.001l21.23,38.976c1.482,2.721,4.284,4.261,7.178,4.261c1.32,0,2.658-0.32,3.899-0.996
	c3.961-2.157,5.422-7.117,3.265-11.077l-21.23-38.976c-2.157-3.961-7.117-5.423-11.077-3.265
	C126.689,34.082,125.227,39.041,127.383,43.001z"/>
<path d="M38.272,131.209l37.288,24.072c1.37,0.885,2.904,1.306,4.421,1.306c2.679,0,5.305-1.318,6.868-3.738
	c2.446-3.789,1.358-8.843-2.431-11.289L47.13,117.488c-3.79-2.447-8.843-1.359-11.289,2.431
	C33.394,123.708,34.483,128.763,38.272,131.209z"/>
<path d="M381.349,31.924c-3.963-2.158-8.921-0.695-11.077,3.265l-21.229,38.976c-2.157,3.961-0.696,8.919,3.264,11.077
	c1.241,0.676,2.579,0.996,3.899,0.996c2.894,0,5.696-1.542,7.178-4.261l21.229-38.976C386.771,39.04,385.309,34.082,381.349,31.924z
	"/>
<path d="M464.87,117.488l-37.288,24.072c-3.789,2.446-4.878,7.5-2.431,11.289c1.562,2.419,4.187,3.738,6.868,3.738
	c1.518,0,3.053-0.422,4.421-1.306l37.288-24.072c3.789-2.446,4.878-7.5,2.431-11.289
	C473.713,116.131,468.655,115.044,464.87,117.488z"/>
<path d="M348.959,326.116c1.306,0.775,2.743,1.144,4.159,1.144c2.788,0,5.505-1.428,7.03-4c3.277-5.523,6.841-11.456,10.724-17.92
	l0.814-1.355c17.749-24.477,27.127-53.425,27.127-83.742c0-37.804-14.626-73.438-41.184-100.336
	c-26.533-26.873-61.926-41.955-99.659-42.465c-39.282-0.496-77.577,15.748-105.133,44.661c-3.112,3.265-2.988,8.433,0.278,11.545
	c3.265,3.111,8.434,2.988,11.545-0.278c24.432-25.637,58.362-40.089,93.091-39.599c33.416,0.453,64.761,13.81,88.259,37.61
	c23.521,23.822,36.474,55.381,36.474,88.862c0,26.958-8.371,52.692-24.209,74.42c-0.143,0.196-0.277,0.397-0.402,0.605l-0.998,1.661
	c-3.899,6.491-7.479,12.45-10.77,17.996C343.803,318.805,345.081,323.814,348.959,326.116z"/>
<path d="M340.905,340.129c-4.009-2.06-8.933-0.481-10.995,3.531c-7.356,14.315-11.749,26.121-14.148,38.268H196.238
	c-4.863-24.654-17.421-45.557-40.65-84.227l-1.461-2.431c-0.125-0.208-0.259-0.409-0.402-0.606
	c-15.838-21.728-24.209-47.462-24.209-74.42c0-21.791,5.819-43.38,16.83-62.432c2.257-3.904,0.92-8.899-2.984-11.155
	c-3.903-2.257-8.898-0.921-11.155,2.984c-12.443,21.533-19.02,45.947-19.02,70.603c0,30.316,9.378,59.264,27.127,83.742l1.277,2.125
	c23.336,38.849,34.733,57.826,38.853,80.175c-7.504,4.854-12.484,13.29-12.484,22.873c0,7.418,2.984,14.148,7.812,19.064
	c-4.827,4.916-7.812,11.647-7.812,19.064c0,15.015,12.216,27.231,27.229,27.231h11.417C212.696,496.319,232.792,512,256,512
	s43.304-15.68,49.395-37.483h11.417c15.015,0,27.229-12.216,27.229-27.231c0-7.418-2.984-14.148-7.812-19.064
	c4.827-4.916,7.812-11.647,7.812-19.064c0-9.583-4.98-18.02-12.484-22.873c2.04-11.092,5.916-21.612,12.878-35.161
	C346.497,347.113,344.915,342.19,340.905,340.129z M256,495.669c-14.214,0-26.716-8.625-32.117-21.152h64.234
	C282.714,487.044,270.212,495.669,256,495.669z M294.103,436.388h22.708c6.01,0,10.898,4.89,10.898,10.898
	c0,6.01-4.89,10.899-10.898,10.899H195.187c-6.01,0-10.898-4.89-10.898-10.899s4.89-10.898,10.898-10.898h66.631
	c4.51,0,8.166-3.656,8.166-8.166s-3.656-8.166-8.166-8.166h-66.631c-6.01,0-10.898-4.89-10.898-10.898
	c0-4.921,3.279-9.086,7.766-10.436c0.421-0.126,0.851-0.221,1.286-0.295c0.131-0.023,0.261-0.042,0.393-0.06
	c0.48-0.063,0.964-0.109,1.453-0.109h121.623c0.49,0,0.973,0.045,1.453,0.109c0.133,0.017,0.263,0.038,0.395,0.061
	c0.431,0.073,0.858,0.168,1.276,0.293c4.491,1.347,7.775,5.513,7.775,10.438c0,6.01-4.89,10.898-10.898,10.898h-22.708
	c-4.51,0-8.166,3.656-8.166,8.166S289.593,436.388,294.103,436.388z"/>
<g>
</g>
<g>
</g>
<g>
</g>
<g>
</g>
<g>
</g>
<g>
</g>
<g>
</g>
<g>
</g>
<g>
</g>
<g>
</g>
<g>
</g>
<g>
</g>
<g>
</g>
<g>
</g>
<g>
</g>
</svg>
