<?xml version="1.0" encoding="UTF-8" standalone="no"?>
<!-- Generator: Adobe Illustrator 19.0.0, SVG Export Plug-In . SVG Version: 6.00 Build 0)  -->

<svg
   xmlns:dc="http://purl.org/dc/elements/1.1/"
   xmlns:cc="http://creativecommons.org/ns#"
   xmlns:rdf="http://www.w3.org/1999/02/22-rdf-syntax-ns#"
   xmlns:svg="http://www.w3.org/2000/svg"
   xmlns="http://www.w3.org/2000/svg"
   xmlns:sodipodi="http://sodipodi.sourceforge.net/DTD/sodipodi-0.dtd"
   xmlns:inkscape="http://www.inkscape.org/namespaces/inkscape"
   version="1.1"
   id="Layer_1"
   x="0px"
   y="0px"
   viewBox="0 0 512 512"
   style="enable-background:new 0 0 512 512;"
   xml:space="preserve"
   sodipodi:docname="check.svg"
   inkscape:version="0.92.3 (2405546, 2018-03-11)"><metadata
   id="metadata47"><rdf:RDF><cc:Work
       rdf:about=""><dc:format>image/svg+xml</dc:format><dc:type
         rdf:resource="http://purl.org/dc/dcmitype/StillImage" /></cc:Work></rdf:RDF></metadata><defs
   id="defs45" /><sodipodi:namedview
   pagecolor="#ffffff"
   bordercolor="#666666"
   borderopacity="1"
   objecttolerance="10"
   gridtolerance="10"
   guidetolerance="10"
   inkscape:pageopacity="0"
   inkscape:pageshadow="2"
   inkscape:window-width="1920"
   inkscape:window-height="1029"
   id="namedview43"
   showgrid="false"
   inkscape:zoom="0.4609375"
   inkscape:cx="-5.4237288"
   inkscape:cy="256"
   inkscape:window-x="0"
   inkscape:window-y="27"
   inkscape:window-maximized="1"
   inkscape:current-layer="Layer_1" />
<path
   style="fill:#B4BBCC;"
   d="M334.142,68.458H57.759C30.444,68.458,8.3,90.601,8.3,117.917V394.3  c0,27.315,22.143,49.459,49.459,49.459h276.383c27.315,0,49.459-22.143,49.459-49.459V117.917  C383.601,90.601,361.458,68.458,334.142,68.458z"
   id="path2" />
<path
   style="fill:#FFFFFF;"
   d="M311.533,118.536H80.368c-12.145,0-21.989,9.845-21.989,21.989V371.69  c0,12.145,9.845,21.989,21.989,21.989h231.165c12.145,0,21.989-9.845,21.989-21.989V140.526  C333.523,128.382,323.678,118.536,311.533,118.536z"
   id="path4" />
<path
   style="opacity:0.1;enable-background:new    ;"
   d="M80.533,162.68c0-12.145,9.845-21.989,21.989-21.989h231v-0.165  c0-12.145-9.845-21.989-21.99-21.989H80.368c-12.145,0-21.989,9.845-21.989,21.989V371.69c0,12.145,9.845,21.989,21.989,21.989  h0.165C80.533,393.68,80.533,162.68,80.533,162.68z"
   id="path6" />
<path
   style="fill:#A5EB78;"
   d="M237.556,367.588c-8.907,0-17.551-3.458-24.03-9.775L100.531,247.67  c-13.616-13.273-13.894-35.07-0.623-48.687s35.068-13.893,48.686-0.623l82.604,80.52c33.079-47.151,102.071-130.022,219.506-205.202  c16.019-10.253,37.308-5.579,47.558,10.434c10.253,16.014,5.581,37.307-10.433,47.559  C330.1,232.647,268.678,347.943,268.076,349.096c-5.037,9.646-14.338,16.343-25.084,18.06  C241.18,367.447,239.363,367.588,237.556,367.588z"
   id="path8" />
<path
   d="M505.267,79.625c-12.703-19.846-39.185-25.654-59.034-12.952c-19.924,12.754-38.466,25.749-55.689,38.755  c-5.721-25.872-28.826-45.288-56.393-45.288h-188c-4.589,0-8.308,3.72-8.308,8.308s3.719,8.308,8.308,8.308h188  c22.441,0,40.744,18.058,41.144,40.407c-11.818,9.333-22.952,18.635-33.456,27.843v-4.489c0-16.706-13.592-30.297-30.297-30.297  h-42.44c-4.589,0-8.308,3.72-8.308,8.308c0,4.588,3.719,8.308,8.308,8.308h42.44c7.545,0,13.682,6.138,13.682,13.682v19.454  c-43.35,40.131-74.373,77.586-95.15,106.194l-75.672-73.761c-16.878-16.449-43.988-16.1-60.434,0.773  c-16.449,16.874-16.102,43.986,0.772,60.434l42.312,41.243c1.538,1.499,3.677,2.377,5.827,2.357c2.207-0.02,4.38-0.926,5.923-2.508  c3.202-3.286,3.135-8.545-0.151-11.747l-42.312-41.243c-10.314-10.054-10.526-26.624-0.472-36.938  c10.05-10.312,26.622-10.525,36.937-0.472c0,0,82.588,80.503,82.604,80.52c1.73,1.686,4.168,2.549,6.573,2.323  c2.425-0.227,4.629-1.507,6.027-3.5c1.598-2.279,3.217-4.543,4.849-6.798c32.546-44.924,100.111-124.333,212.336-196.178  c12.131-7.765,28.317-4.215,36.082,7.916c7.766,12.13,4.215,28.317-7.916,36.082c-41.379,26.49-76.207,53.982-105.133,80.203  c-0.064,0.054-0.134,0.097-0.197,0.154c-19.526,17.704-36.341,34.813-50.66,50.644c-11.006,12.171-21.709,24.885-31.784,37.934  c-22.429,29.024-33.228,48.602-34.681,51.299c-0.033,0.061-0.062,0.115-0.086,0.16c-0.017,0.032-0.027,0.051-0.04,0.074  c-0.03,0.056-0.052,0.098-0.058,0.109c-3.804,7.284-10.918,12.407-19.035,13.703c-8.1,1.295-16.481-1.364-22.352-7.088  l-46.817-45.634c-0.411-0.401-0.853-0.75-1.317-1.048c-3.253-2.088-7.631-1.676-10.431,1.199c-3.202,3.286-3.135,8.545,0.151,11.747  l46.817,45.634c8.025,7.825,18.62,12.134,29.829,12.134c7.233,0,14.475-1.89,20.791-5.418c7.198-4.019,13.203-10.084,17.09-17.526  c0.298-0.565,15.541-28.918,49.779-69.47v88.207c0,7.545-6.137,13.683-13.682,13.683H80.377c-7.545,0-13.683-6.138-13.683-13.683  V140.517c0-7.544,6.138-13.682,13.683-13.682H235.87c4.589,0,8.308-3.72,8.308-8.308c0-4.588-3.719-8.308-8.308-8.308H80.377  c-16.707,0-30.299,13.592-30.299,30.297v231.165c0,16.707,13.592,30.299,30.299,30.299h231.166  c16.706,0,30.297-13.592,30.297-30.299V264.554c9.925-10.88,21.059-22.366,33.462-34.224v163.961  c0,22.691-18.46,41.151-41.15,41.151H57.767c-22.691,0-41.151-18.46-41.151-41.152V117.908c0-22.691,18.46-41.151,41.151-41.151  h55.151c4.589,0,8.308-3.72,8.308-8.308s-3.719-8.308-8.308-8.308H57.767C25.915,60.141,0,86.055,0,117.908V394.29  c0,31.853,25.915,57.767,57.767,57.767H334.15c31.853,0,57.766-25.914,57.766-57.767V214.927  c27.795-24.978,61.074-51.092,100.401-76.267C512.163,125.953,517.974,99.47,505.267,79.625z"
   id="path10" />
<g
   id="g12">
</g>
<g
   id="g14">
</g>
<g
   id="g16">
</g>
<g
   id="g18">
</g>
<g
   id="g20">
</g>
<g
   id="g22">
</g>
<g
   id="g24">
</g>
<g
   id="g26">
</g>
<g
   id="g28">
</g>
<g
   id="g30">
</g>
<g
   id="g32">
</g>
<g
   id="g34">
</g>
<g
   id="g36">
</g>
<g
   id="g38">
</g>
<g
   id="g40">
</g>
<path
   id="path858"
   d="m -763.3992,-147.55729 c 0,-12.145 9.845,-21.989 21.989,-21.989 h 231 v -0.165 c 0,-12.145 -9.845,-21.989 -21.99,-21.989 h -231.164 c -12.145,0 -21.989,9.845 -21.989,21.989 V 61.452712 c 0,12.145 9.845,21.989 21.989,21.989 h 0.165 c 0,0.001 0,-230.999002 0,-230.999002 z"
   style="opacity:0.1;enable-background:new"
   inkscape:connector-curvature="0" /><path
   id="path860"
   d="m -606.3762,57.350712 c -8.907,0 -17.551,-3.458 -24.03,-9.775 l -112.995,-110.143 c -13.616,-13.273 -13.894,-35.07 -0.623,-48.687002 13.271,-13.617 35.068,-13.893 48.686,-0.623 l 82.604,80.520002 c 33.079,-47.151 102.071,-130.022002 219.506,-205.202002 16.019,-10.253 37.308,-5.579 47.558,10.434 10.253,16.014 5.581,37.307 -10.433,47.559 -157.729,100.976002 -219.151,216.272002 -219.753,217.425002 -5.037,9.646 -14.338,16.343 -25.084,18.06 -1.812,0.291 -3.629,0.432 -5.436,0.432 z"
   style="fill:#a5eb78"
   inkscape:connector-curvature="0" /><path
   id="path862"
   d="m -338.6652,-230.61229 c -12.703,-19.846 -39.185,-25.654 -59.034,-12.952 -19.924,12.754 -38.466,25.749 -55.689,38.755 -5.721,-25.872 -28.826,-45.288 -56.393,-45.288 h -188 c -4.589,0 -8.308,3.72 -8.308,8.308 0,4.588 3.719,8.308 8.308,8.308 h 188 c 22.441,0 40.744,18.058 41.144,40.407 -11.818,9.333 -22.952,18.635 -33.456,27.843 v -4.489 c 0,-16.706 -13.592,-30.297 -30.297,-30.297 h -42.44 c -4.589,0 -8.308,3.72 -8.308,8.308 0,4.588 3.719,8.308 8.308,8.308 h 42.44 c 7.545,0 13.682,6.138 13.682,13.682 v 19.454 c -43.35,40.131 -74.373,77.586002 -95.15,106.194002 l -75.672,-73.761002 c -16.878,-16.449 -43.988,-16.1 -60.434,0.773 -16.449,16.874 -16.102,43.986002 0.772,60.434002 l 42.312,41.243 c 1.538,1.499 3.677,2.377 5.827,2.357 2.207,-0.02 4.38,-0.926 5.923,-2.508 3.202,-3.286 3.135,-8.545 -0.151,-11.747 l -42.312,-41.243 c -10.314,-10.054 -10.526,-26.624 -0.472,-36.938002 10.05,-10.312 26.622,-10.525 36.937,-0.472 0,0 82.588,80.503002 82.604,80.520002 1.73,1.686 4.168,2.549 6.573,2.323 2.425,-0.227 4.629,-1.507 6.027,-3.5 1.598,-2.279 3.217,-4.543 4.849,-6.798 32.546,-44.924 100.111,-124.333002 212.336,-196.178002 12.131,-7.765 28.317,-4.215 36.082,7.916 7.766,12.13 4.215,28.317 -7.916,36.082 -41.379,26.49 -76.207,53.982 -105.133,80.203 -0.064,0.054 -0.134,0.097 -0.197,0.154 -19.526,17.704002 -36.341,34.813002 -50.66,50.644002 -11.006,12.171 -21.709,24.885 -31.784,37.934 -22.429,29.024 -33.228,48.602 -34.681,51.299 -0.033,0.061 -0.062,0.115 -0.086,0.16 -0.017,0.032 -0.027,0.051 -0.04,0.074 -0.03,0.056 -0.052,0.098 -0.058,0.109 -3.804,7.284 -10.918,12.407 -19.035,13.703 -8.1,1.295 -16.481,-1.364 -22.352,-7.088 l -46.817,-45.6340001 c -0.411,-0.401 -0.853,-0.75 -1.317,-1.048 -3.253,-2.088 -7.631,-1.676 -10.431,1.199 -3.202,3.28599996 -3.135,8.545 0.151,11.747 l 46.817,45.6340001 c 8.025,7.825 18.62,12.134 29.829,12.134 7.233,0 14.475,-1.89 20.791,-5.418 7.198,-4.019 13.203,-10.084 17.09,-17.526 0.298,-0.565 15.541,-28.918 49.779,-69.47 v 88.207 c 0,7.545 -6.137,13.683 -13.682,13.683 h -231.166 c -7.545,0 -13.683,-6.138 -13.683,-13.683 V -169.72029 c 0,-7.544 6.138,-13.682 13.683,-13.682 h 155.493 c 4.589,0 8.308,-3.72 8.308,-8.308 0,-4.588 -3.719,-8.308 -8.308,-8.308 h -155.493 c -16.707,0 -30.299,13.592 -30.299,30.297 V 61.443712 c 0,16.707 13.592,30.299 30.299,30.299 h 231.166 c 16.706,0 30.297,-13.592 30.297,-30.299 v -107.127 c 9.925,-10.88 21.059,-22.366 33.462,-34.224 v 163.961 c 0,22.690998 -18.46,41.150998 -41.15,41.150998 h -276.385 c -22.691,0 -41.151,-18.46 -41.151,-41.151998 V -192.32929 c 0,-22.691 18.46,-41.151 41.151,-41.151 h 55.151 c 4.589,0 8.308,-3.72 8.308,-8.308 0,-4.588 -3.719,-8.308 -8.308,-8.308 h -55.151 c -31.852,0 -57.767,25.914 -57.767,57.767 V 84.052712 c 0,31.852998 25.915,57.766998 57.767,57.766998 h 276.383 c 31.853,0 57.766,-25.914 57.766,-57.766998 v -179.363 c 27.795,-24.978002 61.074,-51.092002 100.401,-76.267002 19.846,-12.707 25.657,-39.19 12.95,-59.035 z"
   inkscape:connector-curvature="0"
   inkscape:export-xdpi="6"
   inkscape:export-ydpi="6" /></svg>