<?xml version="1.0" encoding="UTF-8" standalone="no"?>
<!-- Generator: Adobe Illustrator 19.0.0, SVG Export Plug-In . SVG Version: 6.00 Build 0)  -->

<svg
   xmlns:dc="http://purl.org/dc/elements/1.1/"
   xmlns:cc="http://creativecommons.org/ns#"
   xmlns:rdf="http://www.w3.org/1999/02/22-rdf-syntax-ns#"
   xmlns:svg="http://www.w3.org/2000/svg"
   xmlns="http://www.w3.org/2000/svg"
   xmlns:sodipodi="http://sodipodi.sourceforge.net/DTD/sodipodi-0.dtd"
   xmlns:inkscape="http://www.inkscape.org/namespaces/inkscape"
   version="1.1"
   id="Layer_1"
   x="0px"
   y="0px"
   viewBox="0 0 793.70079 1122.5197"
   xml:space="preserve"
   sodipodi:docname="update.svg"
   inkscape:version="0.92.3 (2405546, 2018-03-11)"
   width="210mm"
   height="297mm"><metadata
   id="metadata51"><rdf:RDF><cc:Work
       rdf:about=""><dc:format>image/svg+xml</dc:format><dc:type
         rdf:resource="http://purl.org/dc/dcmitype/StillImage" /><dc:title></dc:title></cc:Work></rdf:RDF></metadata><defs
   id="defs49" /><sodipodi:namedview
   pagecolor="#ffffff"
   bordercolor="#666666"
   borderopacity="1"
   objecttolerance="10"
   gridtolerance="10"
   guidetolerance="10"
   inkscape:pageopacity="0"
   inkscape:pageshadow="2"
   inkscape:window-width="1920"
   inkscape:window-height="1029"
   id="namedview47"
   showgrid="false"
   inkscape:zoom="0.4609375"
   inkscape:cx="-302.55163"
   inkscape:cy="468.78656"
   inkscape:window-x="0"
   inkscape:window-y="27"
   inkscape:window-maximized="1"
   inkscape:current-layer="Layer_1"
   units="mm"
   showborder="false" />


<polygon
   style="fill:#7dd2f0"
   points="270.307,133.296 270.307,242.8 379.81,242.8 379.81,287.026 226.081,287.026 226.081,133.296 "
   id="polygon8"
   transform="translate(80.271187,712.48579)" />

<g
   id="g4566"
   transform="rotate(-88.675647,660.69439,571.13899)"><path
     id="path2"
     d="M 454.788,112.672 C 417.164,59.074 360.919,23.337 296.415,12.044 231.911,0.749 166.87,15.25 113.273,52.876 59.675,90.5 23.938,146.745 12.644,211.248 l 65.345,11.441 C 94.995,125.564 187.847,60.382 284.973,77.388 382.099,94.394 447.28,187.246 430.274,284.372 413.268,381.497 320.416,446.679 223.291,429.673 208.294,427.047 193.874,422.602 180.219,416.416 L 206.986,382.262 63.095,367.5 111.819,503.692 138.43,469.737 c 22.903,12.258 47.549,20.75 73.419,25.28 64.504,11.294 129.545,-3.208 183.142,-40.832 53.597,-37.624 89.335,-93.869 100.628,-158.373 11.296,-64.502 -3.206,-129.543 -40.831,-183.14 z"
     style="fill:#7dd2f0"
     inkscape:connector-curvature="0" /><g
     id="g6"
     style="opacity:0.1">
	<path
   id="path4"
   d="M 146.443,63.932 C 200.039,26.307 265.081,11.806 329.585,23.1 c 6.425,1.126 12.764,2.503 19.014,4.106 C 332.01,20.32 314.539,15.216 296.415,12.043 231.911,0.749 166.87,15.25 113.273,52.876 59.675,90.5 23.938,146.745 12.644,211.248 l 34.123,5.975 C 59.014,154.852 94.259,100.565 146.443,63.932 Z"
   inkscape:connector-curvature="0" />
</g><path
     id="path10"
     d="m 363.437,481.341 c -3.041,0 -5.967,-1.678 -7.422,-4.583 -2.05,-4.095 -0.391,-9.076 3.704,-11.126 10.537,-5.275 20.802,-11.404 30.508,-18.218 51.785,-36.352 86.312,-90.695 97.225,-153.016 10.913,-62.322 -3.098,-125.163 -39.451,-176.947 -36.352,-51.783 -90.694,-86.312 -153.017,-97.225 -35.709,-6.254 -71.278,-4.44 -105.711,5.389 -4.398,1.257 -8.993,-1.293 -10.251,-5.697 -1.257,-4.404 1.294,-8.993 5.697,-10.251 36.864,-10.523 74.925,-12.464 113.125,-5.777 66.685,11.677 124.832,48.622 163.73,104.032 38.897,55.41 53.889,122.652 42.213,189.336 -11.677,66.685 -48.622,124.833 -104.031,163.73 -10.374,7.282 -21.348,13.835 -32.614,19.474 -1.192,0.596 -2.458,0.879 -3.705,0.879 z"
     inkscape:connector-curvature="0" /><path
     id="path12"
     d="m 111.82,512 c -0.44,0 -0.885,-0.035 -1.327,-0.107 -2.981,-0.483 -5.464,-2.549 -6.481,-5.392 L 55.288,370.31 c -0.96,-2.681 -0.477,-5.667 1.28,-7.909 1.757,-2.241 4.537,-3.424 7.374,-3.133 l 143.89,14.762 c 3.004,0.308 5.603,2.226 6.785,5.005 1.181,2.78 0.758,5.983 -1.105,8.36 l -20.039,25.568 c 10.066,3.813 20.538,6.683 31.248,8.558 44.787,7.845 90.016,-2.268 127.342,-28.471 37.325,-26.202 62.2,-65.301 70.043,-110.094 C 438.324,190.334 376.164,101.789 283.543,85.571 190.928,69.352 102.373,131.513 86.157,224.133 c -0.791,4.512 -5.082,7.527 -9.599,6.738 L 11.212,219.43 c -2.166,-0.379 -4.093,-1.604 -5.357,-3.404 -1.264,-1.8 -1.76,-4.028 -1.381,-6.195 11.677,-66.685 48.622,-124.832 104.034,-163.73 13.182,-9.253 27.283,-17.288 41.911,-23.882 4.173,-1.884 9.085,-0.023 10.968,4.152 1.882,4.175 0.023,9.085 -4.153,10.967 -13.68,6.166 -26.869,13.681 -39.197,22.336 -49.516,34.759 -83.255,85.968 -95.656,144.872 l 49.048,8.589 C 92.85,116.031 187.51,51.923 286.403,69.234 c 49.155,8.608 92.059,35.9 120.806,76.851 28.747,40.951 39.839,90.575 31.233,139.731 -8.606,49.156 -35.9,92.059 -76.851,120.807 -40.951,28.747 -90.571,39.839 -139.732,31.233 -15.619,-2.735 -30.78,-7.401 -45.063,-13.87 -2.319,-1.05 -4.027,-3.108 -4.632,-5.579 -0.606,-2.472 -0.043,-5.086 1.527,-7.089 l 17.495,-22.322 -115.852,-11.887 39.229,109.655 17.34,-22.124 c 2.486,-3.17 6.888,-4.096 10.44,-2.196 22.111,11.836 45.977,20.052 70.936,24.423 38.338,6.712 77.894,3.933 114.398,-8.037 4.354,-1.428 9.037,0.944 10.464,5.296 1.426,4.352 -0.944,9.037 -5.296,10.463 -39.084,12.816 -81.418,15.794 -122.426,8.614 -24.382,-4.269 -47.795,-11.974 -69.698,-22.927 l -22.374,28.548 c -1.588,2.023 -4.004,3.176 -6.527,3.176 z"
     inkscape:connector-curvature="0" /></g>
<path
   d="m 460.08019,1007.8178 h -153.729 c -4.581,0 -8.292,-3.713 -8.292,-8.29201 v -153.73 c 0,-4.58 3.712,-8.292 8.292,-8.292 h 44.226 c 4.581,0 8.292,3.713 8.292,8.292 v 101.211 h 101.211 c 4.581,0 8.292,3.713 8.292,8.292 v 44.226 c 0.001,4.58001 -3.711,8.29301 -8.292,8.29301 z m -145.437,-16.58501 h 137.145 v -27.641 h -101.211 c -4.581,0 -8.292,-3.713 -8.292,-8.292 v -101.212 h -27.641 v 137.145 z"
   id="path14"
   inkscape:connector-curvature="0" />
<g
   id="g16"
   transform="translate(0,610.51969)">
</g>
<g
   id="g18"
   transform="translate(0,610.51969)">
</g>
<g
   id="g20"
   transform="translate(0,610.51969)">
</g>
<g
   id="g22"
   transform="translate(0,610.51969)">
</g>
<g
   id="g24"
   transform="translate(0,610.51969)">
</g>
<g
   id="g26"
   transform="translate(0,610.51969)">
</g>
<g
   id="g28"
   transform="translate(0,610.51969)">
</g>
<g
   id="g30"
   transform="translate(0,610.51969)">
</g>
<g
   id="g32"
   transform="translate(0,610.51969)">
</g>
<g
   id="g34"
   transform="translate(0,610.51969)">
</g>
<g
   id="g36"
   transform="translate(0,610.51969)">
</g>
<g
   id="g38"
   transform="translate(0,610.51969)">
</g>
<g
   id="g40"
   transform="translate(0,610.51969)">
</g>
<g
   id="g42"
   transform="translate(0,610.51969)">
</g>
<g
   id="g44"
   transform="translate(0,610.51969)">
</g>
<polygon
   id="polygon4568"
   points="270.307,242.8 379.81,242.8 379.81,287.026 226.081,287.026 226.081,133.296 270.307,133.296 "
   style="fill:#7dd2f0"
   transform="translate(-765.49702,593.645)"
   inkscape:export-xdpi="4.7867398"
   inkscape:export-ydpi="4.7867398" /><g
   id="g4580"
   transform="rotate(92.350336,-413.90764,187.03559)"
   inkscape:export-xdpi="4.7867398"
   inkscape:export-ydpi="4.7867398"><path
     inkscape:connector-curvature="0"
     style="fill:#7dd2f0"
     d="M 454.788,112.672 C 417.164,59.074 360.919,23.337 296.415,12.044 231.911,0.749 166.87,15.25 113.273,52.876 59.675,90.5 23.938,146.745 12.644,211.248 l 65.345,11.441 C 94.995,125.564 187.847,60.382 284.973,77.388 382.099,94.394 447.28,187.246 430.274,284.372 413.268,381.497 320.416,446.679 223.291,429.673 208.294,427.047 193.874,422.602 180.219,416.416 L 206.986,382.262 63.095,367.5 111.819,503.692 138.43,469.737 c 22.903,12.258 47.549,20.75 73.419,25.28 64.504,11.294 129.545,-3.208 183.142,-40.832 53.597,-37.624 89.335,-93.869 100.628,-158.373 11.296,-64.502 -3.206,-129.543 -40.831,-183.14 z"
     id="path4570" /><g
     style="opacity:0.1"
     id="g4574">
	<path
   inkscape:connector-curvature="0"
   d="M 146.443,63.932 C 200.039,26.307 265.081,11.806 329.585,23.1 c 6.425,1.126 12.764,2.503 19.014,4.106 C 332.01,20.32 314.539,15.216 296.415,12.043 231.911,0.749 166.87,15.25 113.273,52.876 59.675,90.5 23.938,146.745 12.644,211.248 l 34.123,5.975 C 59.014,154.852 94.259,100.565 146.443,63.932 Z"
   id="path4572" />
</g><path
     inkscape:connector-curvature="0"
     d="m 363.437,481.341 c -3.041,0 -5.967,-1.678 -7.422,-4.583 -2.05,-4.095 -0.391,-9.076 3.704,-11.126 10.537,-5.275 20.802,-11.404 30.508,-18.218 51.785,-36.352 86.312,-90.695 97.225,-153.016 10.913,-62.322 -3.098,-125.163 -39.451,-176.947 -36.352,-51.783 -90.694,-86.312 -153.017,-97.225 -35.709,-6.254 -71.278,-4.44 -105.711,5.389 -4.398,1.257 -8.993,-1.293 -10.251,-5.697 -1.257,-4.404 1.294,-8.993 5.697,-10.251 36.864,-10.523 74.925,-12.464 113.125,-5.777 66.685,11.677 124.832,48.622 163.73,104.032 38.897,55.41 53.889,122.652 42.213,189.336 -11.677,66.685 -48.622,124.833 -104.031,163.73 -10.374,7.282 -21.348,13.835 -32.614,19.474 -1.192,0.596 -2.458,0.879 -3.705,0.879 z"
     id="path4576" /><path
     inkscape:connector-curvature="0"
     d="m 111.82,512 c -0.44,0 -0.885,-0.035 -1.327,-0.107 -2.981,-0.483 -5.464,-2.549 -6.481,-5.392 L 55.288,370.31 c -0.96,-2.681 -0.477,-5.667 1.28,-7.909 1.757,-2.241 4.537,-3.424 7.374,-3.133 l 143.89,14.762 c 3.004,0.308 5.603,2.226 6.785,5.005 1.181,2.78 0.758,5.983 -1.105,8.36 l -20.039,25.568 c 10.066,3.813 20.538,6.683 31.248,8.558 44.787,7.845 90.016,-2.268 127.342,-28.471 37.325,-26.202 62.2,-65.301 70.043,-110.094 C 438.324,190.334 376.164,101.789 283.543,85.571 190.928,69.352 102.373,131.513 86.157,224.133 c -0.791,4.512 -5.082,7.527 -9.599,6.738 L 11.212,219.43 c -2.166,-0.379 -4.093,-1.604 -5.357,-3.404 -1.264,-1.8 -1.76,-4.028 -1.381,-6.195 11.677,-66.685 48.622,-124.832 104.034,-163.73 13.182,-9.253 27.283,-17.288 41.911,-23.882 4.173,-1.884 9.085,-0.023 10.968,4.152 1.882,4.175 0.023,9.085 -4.153,10.967 -13.68,6.166 -26.869,13.681 -39.197,22.336 -49.516,34.759 -83.255,85.968 -95.656,144.872 l 49.048,8.589 C 92.85,116.031 187.51,51.923 286.403,69.234 c 49.155,8.608 92.059,35.9 120.806,76.851 28.747,40.951 39.839,90.575 31.233,139.731 -8.606,49.156 -35.9,92.059 -76.851,120.807 -40.951,28.747 -90.571,39.839 -139.732,31.233 -15.619,-2.735 -30.78,-7.401 -45.063,-13.87 -2.319,-1.05 -4.027,-3.108 -4.632,-5.579 -0.606,-2.472 -0.043,-5.086 1.527,-7.089 l 17.495,-22.322 -115.852,-11.887 39.229,109.655 17.34,-22.124 c 2.486,-3.17 6.888,-4.096 10.44,-2.196 22.111,11.836 45.977,20.052 70.936,24.423 38.338,6.712 77.894,3.933 114.398,-8.037 4.354,-1.428 9.037,0.944 10.464,5.296 1.426,4.352 -0.944,9.037 -5.296,10.463 -39.084,12.816 -81.418,15.794 -122.426,8.614 -24.382,-4.269 -47.795,-11.974 -69.698,-22.927 l -22.374,28.548 c -1.588,2.023 -4.004,3.176 -6.527,3.176 z"
     id="path4578" /></g><path
   id="path4582"
   d="m -385.68802,888.97701 h -153.729 c -4.581,0 -8.292,-3.713 -8.292,-8.292 v -153.73 c 0,-4.58 3.712,-8.292 8.292,-8.292 h 44.226 c 4.581,0 8.292,3.713 8.292,8.292 v 101.211 h 101.211 c 4.581,0 8.292,3.713 8.292,8.292 v 44.226 c 0.001,4.58 -3.711,8.293 -8.292,8.293 z m -145.437,-16.585 h 137.145 v -27.641 h -101.211 c -4.581,0 -8.292,-3.713 -8.292,-8.292 v -101.212 h -27.641 v 137.145 z"
   inkscape:connector-curvature="0"
   inkscape:export-xdpi="4.7867398"
   inkscape:export-ydpi="4.7867398" /><polygon
   inkscape:export-ydpi="6"
   inkscape:export-xdpi="6"
   transform="translate(-789.36143,-133.13466)"
   style="fill:#7dd2f0"
   points="379.81,242.8 379.81,287.026 226.081,287.026 226.081,133.296 270.307,133.296 270.307,242.8 "
   id="polygon842" /><g
   inkscape:export-ydpi="6"
   inkscape:export-xdpi="6"
   transform="rotate(-179.94168,-139.05943,191.56342)"
   id="g854"><path
     id="path844"
     d="M 454.788,112.672 C 417.164,59.074 360.919,23.337 296.415,12.044 231.911,0.749 166.87,15.25 113.273,52.876 59.675,90.5 23.938,146.745 12.644,211.248 l 65.345,11.441 C 94.995,125.564 187.847,60.382 284.973,77.388 382.099,94.394 447.28,187.246 430.274,284.372 413.268,381.497 320.416,446.679 223.291,429.673 208.294,427.047 193.874,422.602 180.219,416.416 L 206.986,382.262 63.095,367.5 111.819,503.692 138.43,469.737 c 22.903,12.258 47.549,20.75 73.419,25.28 64.504,11.294 129.545,-3.208 183.142,-40.832 53.597,-37.624 89.335,-93.869 100.628,-158.373 11.296,-64.502 -3.206,-129.543 -40.831,-183.14 z"
     style="fill:#7dd2f0"
     inkscape:connector-curvature="0" /><g
     id="g848"
     style="opacity:0.1">
	<path
   id="path846"
   d="M 146.443,63.932 C 200.039,26.307 265.081,11.806 329.585,23.1 c 6.425,1.126 12.764,2.503 19.014,4.106 C 332.01,20.32 314.539,15.216 296.415,12.043 231.911,0.749 166.87,15.25 113.273,52.876 59.675,90.5 23.938,146.745 12.644,211.248 l 34.123,5.975 C 59.014,154.852 94.259,100.565 146.443,63.932 Z"
   inkscape:connector-curvature="0" />
</g><path
     id="path850"
     d="m 363.437,481.341 c -3.041,0 -5.967,-1.678 -7.422,-4.583 -2.05,-4.095 -0.391,-9.076 3.704,-11.126 10.537,-5.275 20.802,-11.404 30.508,-18.218 51.785,-36.352 86.312,-90.695 97.225,-153.016 10.913,-62.322 -3.098,-125.163 -39.451,-176.947 -36.352,-51.783 -90.694,-86.312 -153.017,-97.225 -35.709,-6.254 -71.278,-4.44 -105.711,5.389 -4.398,1.257 -8.993,-1.293 -10.251,-5.697 -1.257,-4.404 1.294,-8.993 5.697,-10.251 36.864,-10.523 74.925,-12.464 113.125,-5.777 66.685,11.677 124.832,48.622 163.73,104.032 38.897,55.41 53.889,122.652 42.213,189.336 -11.677,66.685 -48.622,124.833 -104.031,163.73 -10.374,7.282 -21.348,13.835 -32.614,19.474 -1.192,0.596 -2.458,0.879 -3.705,0.879 z"
     inkscape:connector-curvature="0" /><path
     id="path852"
     d="m 111.82,512 c -0.44,0 -0.885,-0.035 -1.327,-0.107 -2.981,-0.483 -5.464,-2.549 -6.481,-5.392 L 55.288,370.31 c -0.96,-2.681 -0.477,-5.667 1.28,-7.909 1.757,-2.241 4.537,-3.424 7.374,-3.133 l 143.89,14.762 c 3.004,0.308 5.603,2.226 6.785,5.005 1.181,2.78 0.758,5.983 -1.105,8.36 l -20.039,25.568 c 10.066,3.813 20.538,6.683 31.248,8.558 44.787,7.845 90.016,-2.268 127.342,-28.471 37.325,-26.202 62.2,-65.301 70.043,-110.094 C 438.324,190.334 376.164,101.789 283.543,85.571 190.928,69.352 102.373,131.513 86.157,224.133 c -0.791,4.512 -5.082,7.527 -9.599,6.738 L 11.212,219.43 c -2.166,-0.379 -4.093,-1.604 -5.357,-3.404 -1.264,-1.8 -1.76,-4.028 -1.381,-6.195 11.677,-66.685 48.622,-124.832 104.034,-163.73 13.182,-9.253 27.283,-17.288 41.911,-23.882 4.173,-1.884 9.085,-0.023 10.968,4.152 1.882,4.175 0.023,9.085 -4.153,10.967 -13.68,6.166 -26.869,13.681 -39.197,22.336 -49.516,34.759 -83.255,85.968 -95.656,144.872 l 49.048,8.589 C 92.85,116.031 187.51,51.923 286.403,69.234 c 49.155,8.608 92.059,35.9 120.806,76.851 28.747,40.951 39.839,90.575 31.233,139.731 -8.606,49.156 -35.9,92.059 -76.851,120.807 -40.951,28.747 -90.571,39.839 -139.732,31.233 -15.619,-2.735 -30.78,-7.401 -45.063,-13.87 -2.319,-1.05 -4.027,-3.108 -4.632,-5.579 -0.606,-2.472 -0.043,-5.086 1.527,-7.089 l 17.495,-22.322 -115.852,-11.887 39.229,109.655 17.34,-22.124 c 2.486,-3.17 6.888,-4.096 10.44,-2.196 22.111,11.836 45.977,20.052 70.936,24.423 38.338,6.712 77.894,3.933 114.398,-8.037 4.354,-1.428 9.037,0.944 10.464,5.296 1.426,4.352 -0.944,9.037 -5.296,10.463 -39.084,12.816 -81.418,15.794 -122.426,8.614 -24.382,-4.269 -47.795,-11.974 -69.698,-22.927 l -22.374,28.548 c -1.588,2.023 -4.004,3.176 -6.527,3.176 z"
     inkscape:connector-curvature="0" /></g><path
   inkscape:export-ydpi="6"
   inkscape:export-xdpi="6"
   inkscape:connector-curvature="0"
   d="m -409.55243,162.19734 h -153.729 c -4.581,0 -8.292,-3.713 -8.292,-8.292 V 0.17533504 c 0,-4.58000004 3.712,-8.29200004 8.292,-8.29200004 h 44.226 c 4.581,0 8.292,3.713 8.292,8.29200004 V 101.38634 h 101.211 c 4.581,0 8.292,3.713 8.292,8.292 v 44.226 c 10e-4,4.58 -3.711,8.293 -8.292,8.293 z m -145.437,-16.585 h 137.145 v -27.641 h -101.211 c -4.581,0 -8.292,-3.713 -8.292,-8.292 V 8.467335 h -27.641 V 145.61234 Z"
   id="path856" /><polygon
   id="polygon858"
   points="270.307,133.296 270.307,242.8 379.81,242.8 379.81,287.026 226.081,287.026 226.081,133.296 "
   style="fill:#7dd2f0"
   transform="translate(-23.864407,-109.7515)" /><g
   id="g870"
   transform="translate(-23.864407,-109.7515)"><path
     inkscape:connector-curvature="0"
     style="fill:#7dd2f0"
     d="M 454.788,112.672 C 417.164,59.074 360.919,23.337 296.415,12.044 231.911,0.749 166.87,15.25 113.273,52.876 59.675,90.5 23.938,146.745 12.644,211.248 l 65.345,11.441 C 94.995,125.564 187.847,60.382 284.973,77.388 382.099,94.394 447.28,187.246 430.274,284.372 413.268,381.497 320.416,446.679 223.291,429.673 208.294,427.047 193.874,422.602 180.219,416.416 L 206.986,382.262 63.095,367.5 111.819,503.692 138.43,469.737 c 22.903,12.258 47.549,20.75 73.419,25.28 64.504,11.294 129.545,-3.208 183.142,-40.832 53.597,-37.624 89.335,-93.869 100.628,-158.373 11.296,-64.502 -3.206,-129.543 -40.831,-183.14 z"
     id="path860" /><g
     style="opacity:0.1"
     id="g864">
	<path
   inkscape:connector-curvature="0"
   d="M 146.443,63.932 C 200.039,26.307 265.081,11.806 329.585,23.1 c 6.425,1.126 12.764,2.503 19.014,4.106 C 332.01,20.32 314.539,15.216 296.415,12.043 231.911,0.749 166.87,15.25 113.273,52.876 59.675,90.5 23.938,146.745 12.644,211.248 l 34.123,5.975 C 59.014,154.852 94.259,100.565 146.443,63.932 Z"
   id="path862" />
</g><path
     inkscape:connector-curvature="0"
     d="m 363.437,481.341 c -3.041,0 -5.967,-1.678 -7.422,-4.583 -2.05,-4.095 -0.391,-9.076 3.704,-11.126 10.537,-5.275 20.802,-11.404 30.508,-18.218 51.785,-36.352 86.312,-90.695 97.225,-153.016 10.913,-62.322 -3.098,-125.163 -39.451,-176.947 -36.352,-51.783 -90.694,-86.312 -153.017,-97.225 -35.709,-6.254 -71.278,-4.44 -105.711,5.389 -4.398,1.257 -8.993,-1.293 -10.251,-5.697 -1.257,-4.404 1.294,-8.993 5.697,-10.251 36.864,-10.523 74.925,-12.464 113.125,-5.777 66.685,11.677 124.832,48.622 163.73,104.032 38.897,55.41 53.889,122.652 42.213,189.336 -11.677,66.685 -48.622,124.833 -104.031,163.73 -10.374,7.282 -21.348,13.835 -32.614,19.474 -1.192,0.596 -2.458,0.879 -3.705,0.879 z"
     id="path866" /><path
     inkscape:connector-curvature="0"
     d="m 111.82,512 c -0.44,0 -0.885,-0.035 -1.327,-0.107 -2.981,-0.483 -5.464,-2.549 -6.481,-5.392 L 55.288,370.31 c -0.96,-2.681 -0.477,-5.667 1.28,-7.909 1.757,-2.241 4.537,-3.424 7.374,-3.133 l 143.89,14.762 c 3.004,0.308 5.603,2.226 6.785,5.005 1.181,2.78 0.758,5.983 -1.105,8.36 l -20.039,25.568 c 10.066,3.813 20.538,6.683 31.248,8.558 44.787,7.845 90.016,-2.268 127.342,-28.471 37.325,-26.202 62.2,-65.301 70.043,-110.094 C 438.324,190.334 376.164,101.789 283.543,85.571 190.928,69.352 102.373,131.513 86.157,224.133 c -0.791,4.512 -5.082,7.527 -9.599,6.738 L 11.212,219.43 c -2.166,-0.379 -4.093,-1.604 -5.357,-3.404 -1.264,-1.8 -1.76,-4.028 -1.381,-6.195 11.677,-66.685 48.622,-124.832 104.034,-163.73 13.182,-9.253 27.283,-17.288 41.911,-23.882 4.173,-1.884 9.085,-0.023 10.968,4.152 1.882,4.175 0.023,9.085 -4.153,10.967 -13.68,6.166 -26.869,13.681 -39.197,22.336 -49.516,34.759 -83.255,85.968 -95.656,144.872 l 49.048,8.589 C 92.85,116.031 187.51,51.923 286.403,69.234 c 49.155,8.608 92.059,35.9 120.806,76.851 28.747,40.951 39.839,90.575 31.233,139.731 -8.606,49.156 -35.9,92.059 -76.851,120.807 -40.951,28.747 -90.571,39.839 -139.732,31.233 -15.619,-2.735 -30.78,-7.401 -45.063,-13.87 -2.319,-1.05 -4.027,-3.108 -4.632,-5.579 -0.606,-2.472 -0.043,-5.086 1.527,-7.089 l 17.495,-22.322 -115.852,-11.887 39.229,109.655 17.34,-22.124 c 2.486,-3.17 6.888,-4.096 10.44,-2.196 22.111,11.836 45.977,20.052 70.936,24.423 38.338,6.712 77.894,3.933 114.398,-8.037 4.354,-1.428 9.037,0.944 10.464,5.296 1.426,4.352 -0.944,9.037 -5.296,10.463 -39.084,12.816 -81.418,15.794 -122.426,8.614 -24.382,-4.269 -47.795,-11.974 -69.698,-22.927 l -22.374,28.548 c -1.588,2.023 -4.004,3.176 -6.527,3.176 z"
     id="path868" /></g><path
   id="path872"
   d="m 355.94459,185.5805 h -153.729 c -4.581,0 -8.292,-3.713 -8.292,-8.292 V 23.558495 c 0,-4.58 3.712,-8.292 8.292,-8.292 h 44.226 c 4.581,0 8.292,3.713 8.292,8.292 V 124.7695 h 101.211 c 4.581,0 8.292,3.713 8.292,8.292 v 44.226 c 0.001,4.58 -3.711,8.293 -8.292,8.293 z m -145.437,-16.585 h 137.145 v -27.641 h -101.211 c -4.581,0 -8.292,-3.713 -8.292,-8.292 V 31.850495 h -27.641 V 168.9955 Z"
   inkscape:connector-curvature="0" /></svg>