<svg xmlns="http://www.w3.org/2000/svg" viewBox="0 0 64 64" width="64" height="64">

  <path d="M 24 8 L 40 8 L 39 22 Q 39 28 32 28 Q 25 28 25 22 Z" fill="#FBBF24" stroke="#1F2937" stroke-width="1.5" stroke-linejoin="round"/>
  <path d="M 24 12 Q 18 12 18 18 Q 18 22 24 22" fill="none" stroke="#1F2937" stroke-width="1.5"/>
  <path d="M 40 12 Q 46 12 46 18 Q 46 22 40 22" fill="none" stroke="#1F2937" stroke-width="1.5"/>
  <rect x="29" y="28" width="6" height="4" fill="#D97706" stroke="#1F2937" stroke-width="1.5"/>
  <rect x="25" y="32" width="14" height="3" rx="1" fill="#D97706" stroke="#1F2937" stroke-width="1.5"/>
  <rect x="22" y="40" width="20" height="16" fill="#FBBF24" stroke="#1F2937" stroke-width="1.5"/>
  <rect x="6"  y="46" width="16" height="10" fill="#9CA3AF" stroke="#1F2937" stroke-width="1.5"/>
  <rect x="42" y="48" width="16" height="8"  fill="#B45309" stroke="#1F2937" stroke-width="1.5"/>
  <text x="32" y="51" font-family="sans-serif" font-size="9" font-weight="bold" text-anchor="middle" fill="#1F2937">1</text>
  <text x="14" y="54" font-family="sans-serif" font-size="7" font-weight="bold" text-anchor="middle" fill="#1F2937">2</text>
  <text x="50" y="55" font-family="sans-serif" font-size="7" font-weight="bold" text-anchor="middle" fill="#1F2937">3</text>

</svg>